<?xml version="1.0" encoding="UTF-8" standalone="no"?>
<!-- Created with Inkscape (http://www.inkscape.org/) -->

<svg
   version="1.1"
   id="svg1"
   width="96"
   height="96"
   viewBox="0 0 96 96"
   sodipodi:docname="Stamp.ai"
   xmlns:inkscape="http://www.inkscape.org/namespaces/inkscape"
   xmlns:sodipodi="http://sodipodi.sourceforge.net/DTD/sodipodi-0.dtd"
   xmlns="http://www.w3.org/2000/svg"
   xmlns:svg="http://www.w3.org/2000/svg">
  <defs
     id="defs1">
    <clipPath
       clipPathUnits="userSpaceOnUse"
       id="clipPath2">
      <path
         d="M 0,72 H 72 V 0 H 0 Z"
         transform="translate(-20.819301,-55.062502)"
         id="path2" />
    </clipPath>
    <clipPath
       clipPathUnits="userSpaceOnUse"
       id="clipPath4">
      <path
         d="M 0,72 H 72 V 0 H 0 Z"
         transform="translate(-46.697401,-30.051501)"
         id="path4" />
    </clipPath>
    <clipPath
       clipPathUnits="userSpaceOnUse"
       id="clipPath6">
      <path
         d="M 0,72 H 72 V 0 H 0 Z"
         transform="translate(-34.170001,-41.619901)"
         id="path6" />
    </clipPath>
    <clipPath
       clipPathUnits="userSpaceOnUse"
       id="clipPath8">
      <path
         d="M 0,72 H 72 V 0 H 0 Z"
         transform="translate(-56.176102,-43.407501)"
         id="path8" />
    </clipPath>
  </defs>
  <sodipodi:namedview
     id="namedview1"
     pagecolor="#ffffff"
     bordercolor="#000000"
     borderopacity="0.25"
     inkscape:showpageshadow="2"
     inkscape:pageopacity="0.0"
     inkscape:pagecheckerboard="0"
     inkscape:deskcolor="#d1d1d1">
    <inkscape:page
       x="0"
       y="0"
       inkscape:label="1"
       id="page1"
       width="96"
       height="96"
       margin="16.222534 6.6678667 15.635467 11.016586"
       bleed="0" />
  </sodipodi:namedview>
  <g
     id="layer-MC0"
     inkscape:groupmode="layer"
     inkscape:label="Layer 1"
     style="display:none" />
  <g
     id="layer-MC1"
     inkscape:groupmode="layer"
     inkscape:label="Frame">
    <path
       id="path1"
       d="M 0,0 C 0.017,0.001 0.025,0.002 0.039,0.003 0.025,0.002 0.012,0 -0.004,-0.001 -0.003,-0.001 -0.001,0 0,0 m -9.938,-36.394 c 0.272,-0.764 1.105,-1.746 1.583,-1.988 0.901,-0.456 1.064,-0.215 1.756,-0.813 0.665,-0.576 1.387,-0.914 2.049,-1.493 0.019,-0.016 0.034,-0.039 0.055,-0.051 1.08,-0.576 1.888,-1.569 3.064,-1.998 0.345,-0.126 2.227,-0.087 2.586,-0.009 0.024,0.005 0.058,0.017 0.072,0.005 0.5,-0.394 0.969,0.092 1.466,0.061 0.487,-0.03 0.982,0.158 1.476,0.174 1.205,0.041 2.329,0.655 3.573,0.469 0.32,-0.048 0.67,0.148 1.011,0.183 0.789,0.082 1.567,0.152 2.351,-0.147 0.807,-0.307 1.67,-0.388 2.538,-0.319 0.122,0.009 0.241,0.061 0.363,0.072 0.246,0.022 0.494,0.056 0.738,0.036 0.491,-0.041 0.98,-0.117 1.471,-0.174 1.092,-0.129 2.102,0.259 3.137,0.498 0.926,0.215 1.862,0.146 2.793,0.049 0.642,-0.067 1.284,-0.161 1.915,-0.294 0.616,-0.13 1.21,-0.364 1.828,-0.477 0.356,-0.064 0.74,0.014 1.11,0.043 0.196,0.016 0.389,0.086 0.584,0.093 1.122,0.042 2.196,0.353 3.293,0.537 0.616,0.104 1.266,0.043 1.898,10e-4 0.543,-0.036 0.977,0.237 1.519,0.22 0.707,-0.023 1.433,1.226 2.137,1.441 0.856,0.261 0.757,0.547 1.646,0.932 0.402,0.174 0.501,0.129 1.027,0.477 0.507,0.334 1.043,0.648 1.5,1.046 0.323,0.281 0.713,0.555 1.117,0.654 0.544,0.134 0.84,0.555 1.262,0.824 0.276,0.175 0.552,0.354 0.817,0.546 0.097,0.071 0.155,0.171 0.267,0.248 0.237,0.174 0.55,0.179 0.674,0.5 0.124,0.318 0.284,0.618 0.319,0.972 l -0.064,0.647 c 0.035,0.713 0.158,1.458 0.322,2.167 0.096,0.419 0.363,0.799 0.551,1.198 0.036,0.078 0.079,0.159 0.09,0.242 0.084,0.615 0.216,1.231 0.223,1.848 0.008,0.666 -0.112,1.333 -0.159,2.001 -0.022,0.321 -0.02,0.647 10e-4,0.969 0.08,1.253 -0.005,2.466 -0.475,3.666 -0.266,0.677 -0.291,1.45 -0.413,2.181 -0.039,0.233 -0.058,0.471 -0.061,0.707 -0.008,0.697 -0.049,1.398 0.01,2.09 0.07,0.81 -0.271,1.542 -0.336,2.321 -0.09,1.098 -0.108,2.193 0.212,3.266 0.021,0.071 0.037,0.146 0.04,0.22 0.038,0.931 0.314,1.806 0.606,2.68 0.063,0.187 0.088,0.391 0.101,0.59 0.069,1.079 -0.353,4.224 -1.107,4.997 -0.386,0.396 -0.876,0.691 -1.327,1.021 -0.77,0.563 -1.375,1.251 -1.777,2.126 -0.116,0.253 -0.343,0.458 -0.535,0.671 -0.85,0.941 -1.695,1.887 -2.568,2.807 C 38.159,4.583 37.849,4.767 37.549,4.93 36.77,5.353 36.449,5.166 35.597,5.185 35.049,5.196 34.499,5.23 33.953,5.196 33.59,5.174 33.236,5.002 32.873,4.982 31.932,4.93 30.988,4.925 30.045,4.901 29.908,4.897 29.76,4.916 29.637,4.87 29.072,4.664 28.467,4.674 27.893,4.396 27.33,4.123 26.621,4.148 25.975,4.055 25.102,3.929 24.231,3.791 23.355,3.704 22.775,3.647 22.188,3.672 21.604,3.661 21.542,3.66 21.47,3.662 21.421,3.674 20.591,3.877 20.197,3.777 19.657,4.133 19.234,4.411 18.892,4.584 18.427,4.657 17.867,4.746 17.221,4.872 16.595,4.688 16.488,4.657 16.356,4.637 16.234,4.62 16.086,4.599 15.915,4.626 15.793,4.56 15.128,4.206 14.406,4.396 13.714,4.314 12.864,4.214 12.013,4.12 11.163,4.023 10.485,3.946 9.809,3.846 9.129,3.798 8.328,3.742 7.573,3.541 6.82,3.271 5.978,2.97 5.12,2.711 4.256,2.483 3.543,2.294 2.816,2.098 2.087,2.054 1.548,2.021 0.99,2.211 0.448,2.332 -0.197,2.475 -0.757,2.846 -1.459,2.892 -2.172,2.939 -2.721,2.67 -3.454,2.492 -4.213,2.308 -4.825,1.853 -5.355,1.269 -5.6,1 -5.959,0.839 -6.229,0.589 -6.694,0.16 -7.137,-0.294 -7.573,-0.752 c -0.143,-0.15 -0.228,-0.354 -0.355,-0.522 -0.605,-0.798 -1.161,-1.642 -1.84,-2.371 -0.949,-1.02 -1.912,-1.6 -1.912,-1.6 -0.322,-0.215 -0.436,-0.533 -0.644,-0.927 -0.275,-0.519 -0.273,-1.125 -0.166,-1.528 0.324,-1.224 -0.059,-1.18 0.187,-2.894 0.25,-1.743 0.469,-1.784 0.706,-3.243 0.096,-0.591 -0.015,-1.213 -0.013,-1.821 0.002,-0.636 0.073,-1.275 0.033,-1.907 -0.056,-0.857 -0.051,-1.731 -0.478,-2.53 -0.14,-0.262 -0.2,-0.587 -0.221,-0.888 -0.052,-0.742 -0.118,-1.492 -0.061,-2.23 0.033,-0.439 0.303,-0.857 0.443,-1.291 0.244,-0.754 0.126,-1.061 0.372,-1.814 0.068,-0.21 -0.11,-0.97 -0.11,-0.97 -0.061,-0.297 -0.128,-0.67 -0.184,-1.103 0,0 -0.133,-0.449 -0.088,-0.904 0.256,-2.578 0.865,-4.004 1.966,-7.099 m 33.99,36.477 c 0.64,0.053 1.164,0.16 1.497,0.229 0.587,0.121 0.553,0.182 1.765,0.466 0.687,0.16 1.377,0.306 2.068,0.444 0.244,0.049 0.496,0.068 0.745,0.078 0.871,0.037 1.746,0.035 2.614,0.105 0.442,0.035 0.87,0.214 1.31,0.288 0.58,0.098 1.166,0.215 1.75,0.223 0.03,-0.064 0.084,-0.143 0.175,-0.243 0.492,-0.543 0.917,-1.146 1.407,-1.691 0.324,-0.36 0.74,-0.639 1.062,-1 0.644,-0.723 1.231,-1.497 1.883,-2.213 0.362,-0.399 0.804,-0.726 1.214,-1.081 0.612,-0.531 0.864,-0.623 0.929,-1.431 0.021,-0.271 0.1,-0.542 0.088,-0.81 C 42.541,-6.96 42.48,-7.367 42.41,-7.769 42.341,-8.173 42.238,-8.57 42.15,-8.97 c -0.099,-0.445 -0.231,-0.869 -0.171,-1.352 0.052,-0.418 -0.07,-0.859 -0.123,-1.289 -0.141,-1.148 0.024,-2.28 0.119,-3.423 0.112,-1.339 0.1,-2.691 0.099,-4.037 -10e-4,-1.253 0.209,-2.449 0.745,-3.588 0.081,-0.172 0.091,-0.388 0.092,-0.584 0.01,-1.435 -0.071,-2.875 0.035,-4.302 0.082,-1.097 -0.406,-2.041 -0.547,-3.069 -0.074,-0.542 -0.221,-1.073 -0.311,-1.614 l -0.213,-1.848 c -0.28,-0.383 -0.71,-0.501 -1.123,-0.731 -1.185,-0.658 -2.145,-1.339 -3.381,-1.959 -0.508,-0.255 -0.322,-0.097 -0.899,-0.389 -0.838,-0.424 -1.39,-0.477 -2.154,-0.913 -0.258,-0.147 -0.517,-0.298 -0.753,-0.478 -1.451,-1.104 -1.597,-0.48 -3.417,-0.64 -0.453,-0.04 -0.908,-0.163 -1.342,-0.308 -0.752,-0.249 -1.491,-0.221 -2.239,-0.02 -0.084,0.023 -0.174,0.019 -0.259,0.036 -0.487,0.097 -0.973,0.197 -1.459,0.297 -0.738,0.153 -1.479,0.297 -2.215,0.464 -0.264,0.06 -0.512,0.185 -0.773,0.261 -0.329,0.096 -0.66,0.214 -0.998,0.252 -1.1,0.123 -2.134,-0.221 -3.186,-0.473 -1.234,-0.296 -2.479,-0.574 -3.77,-0.346 -0.611,0.108 -1.244,0.104 -1.843,0.251 -0.634,0.154 -1.259,0.383 -1.849,0.661 -0.642,0.302 -1.281,0.266 -1.892,0.048 -1.179,-0.42 -2.375,-0.714 -3.623,-0.828 -0.477,-0.043 -0.944,-0.206 -1.414,-0.32 -0.53,-0.13 -1.054,-0.357 -1.588,-0.382 -1.307,-0.062 -2.22,0.199 -3.305,0.931 -1.125,0.759 -1.165,1.253 -2.196,1.728 -0.627,0.29 -0.66,0.126 -0.913,0.35 -0.788,0.701 -0.779,1.067 -1.162,2.034 -0.08,0.203 -0.271,0.763 -0.504,0.965 -0.397,0.344 -0.294,0.472 -0.626,1.007 -0.332,0.533 -0.56,0.488 -0.618,0.968 -0.055,0.455 -0.317,1.693 -0.173,2.231 0.215,0.809 0.34,1.508 0,2.296 -0.068,0.158 -0.229,0.862 -0.275,1.028 -0.298,1.091 -0.025,0.422 -0.298,1.091 -0.238,0.585 -0.373,1.267 -0.342,1.895 0.055,1.098 0.262,2.189 0.424,3.281 0.141,0.953 0.191,1.908 0.108,2.868 -0.029,0.323 -0.091,0.645 -0.103,0.969 -0.033,0.944 -0.059,1.889 -0.064,2.834 -0.002,0.331 0.132,0.674 0.08,0.992 -0.066,0.404 -0.172,0.583 -0.401,1.348 -0.113,0.377 -0.183,0.668 -0.203,0.755 -0.11,0.469 -0.254,1.097 -0.251,1.889 0.002,0.493 0.007,0.873 0.186,1.203 0.033,0.061 0.155,0.008 0.448,0.281 0.046,0.042 0.102,0.075 0.143,0.12 0.587,0.654 1.202,1.286 1.749,1.971 0.534,0.669 0.969,1.417 1.506,2.083 0.322,0.4 0.724,0.755 1.147,1.05 0.506,0.353 1.069,0.628 1.616,0.922 0.005,0.003 0.012,0.004 0.018,0.007 0.005,0 0.008,-0.001 0.013,-0.002 1.135,-0.122 2.26,-0.333 3.393,-0.472 0.94,-0.116 1.878,-0.22 2.82,0.068 0.545,0.166 1.119,0.276 1.686,0.32 0.717,0.054 1.392,0.223 1.958,0.647 0.515,0.388 1.095,0.376 1.671,0.431 1.139,0.109 2.303,0.094 3.412,0.336 0.764,0.166 1.5,0.267 2.273,0.244 0.634,-0.019 1.275,-0.017 1.905,0.048 0.679,0.07 1.343,0.007 1.977,-0.19 0.684,-0.213 0.802,-0.519 1.487,-0.692 0.532,-0.135 1,-0.106 1.308,-0.061 1.044,0.026 1.866,-0.147 2.46,-0.098"
       style="fill:#000000;fill-opacity:1;fill-rule:nonzero;stroke:none"
       transform="matrix(1.3333333,0,0,-1.3333333,27.759067,22.583333)"
       clip-path="url(#clipPath2)" />
  </g>
  <g
     id="layer-MC2"
     inkscape:groupmode="layer"
     inkscape:label="K">
    <path
       id="path3"
       d="m 0,0 c 0.066,-0.012 0.273,-0.052 0.549,-0.11 0.716,-0.151 1.074,-0.225 1.465,-0.368 0.306,-0.112 0.605,-0.246 0.899,-0.401 0.316,-0.168 0.674,-0.255 0.992,-0.42 0.748,-0.39 1.462,-0.84 1.955,-1.545 0.15,-0.214 0.203,-0.506 0.262,-0.77 0.155,-0.69 1.385,-1.578 2.036,-1.614 0.947,-0.052 1.62,0.784 1.697,1.564 0.042,0.428 0.17,0.902 -0.224,1.276 -0.039,0.037 0.024,0.182 0.032,0.232 C 9.455,-1.911 9.256,-1.692 9.074,-1.46 8.655,-0.924 8.052,-0.623 7.525,-0.224 6.621,0.459 5.596,0.906 4.575,1.368 4.011,1.623 3.464,1.918 2.893,2.156 2.481,2.327 2.14,2.4 1.794,2.494 1.302,2.628 0.876,2.724 -0.187,2.933 -1.208,3.133 -1.719,3.234 -1.833,3.247 -2.441,3.315 -2.627,3.273 -4.528,3.213 -5.733,3.176 -6.335,3.184 -6.506,3.193 -7.115,3.225 -7.718,3.352 -8.326,3.414 -8.484,3.43 -8.651,3.35 -8.816,3.329 -8.97,3.308 -9.127,3.29 -9.282,3.301 c -0.378,0.025 -0.756,0.066 -1.134,0.103 -0.27,0.027 -0.54,0.074 -0.81,0.083 -0.673,0.024 -1.358,0.117 -2.015,0.022 -0.749,-0.108 -1.472,-0.395 -2.21,-0.59 -0.203,-0.054 -0.419,-0.083 -0.629,-0.083 -1.058,0 -2.016,-0.383 -2.982,-0.747 -0.406,-0.153 -0.853,-0.219 -1.23,-0.42 -0.481,-0.256 -1.044,-0.345 -1.428,-0.827 -0.222,-0.279 -0.657,-0.381 -0.982,-0.585 -0.449,-0.283 -0.882,-0.59 -1.325,-0.883 -0.638,-0.424 -1.263,-0.869 -1.922,-1.258 -0.432,-0.256 -0.674,-0.613 -0.621,-1.129 0.051,-0.504 0.338,-0.892 0.826,-0.908 0.323,-0.011 0.726,0.106 0.964,0.314 0.636,0.555 1.382,0.918 2.091,1.345 0.615,0.371 1.228,0.752 1.874,1.062 0.615,0.294 1.258,0.553 1.914,0.737 1.003,0.28 2.028,0.48 3.043,0.718 0.229,0.054 0.455,0.124 0.683,0.183 1.803,0.466 3.637,0.378 5.471,0.309 0.461,-0.018 0.923,-0.035 1.385,-0.043 0.87,-0.016 1.427,-0.02 1.772,-0.023 C -5.944,0.676 -4.096,0.66 -2.188,0.38 -1.353,0.257 -0.223,0.042 0,0"
       style="fill:#000000;fill-opacity:1;fill-rule:nonzero;stroke:none"
       transform="matrix(1.3333333,0,0,-1.3333333,62.2632,55.931333)"
       clip-path="url(#clipPath4)" />
    <path
       id="path5"
       d="m 0,0 c 0.192,-0.056 0.298,-0.088 0.422,-0.179 0.613,-0.449 0.716,-1.637 0.226,-2.316 -0.204,-0.283 -0.918,-0.478 -1.262,-0.403 -0.711,0.156 -1.436,0.253 -2.139,0.436 -0.347,0.09 -0.651,0.335 -0.987,0.48 -0.834,0.357 -1.677,0.693 -2.512,1.047 -0.235,0.1 -0.453,0.24 -0.685,0.348 -0.617,0.288 -1.227,0.597 -1.86,0.844 -1.015,0.398 -2.045,0.755 -3.072,1.124 -0.386,0.138 -0.786,0.24 -1.165,0.396 -0.246,0.102 -0.506,0.232 -0.688,0.419 -0.596,0.616 -0.357,1.593 0.523,1.912 0.658,0.239 1.014,0.161 1.898,0.251 0.417,0.042 0.48,0.02 0.934,-0.051 0.549,-0.086 1.18,-0.567 1.632,-0.874 0.394,-0.268 0.85,-0.447 1.282,-0.658 C -6.933,2.523 -6.41,2.278 -5.888,2.029 -4.96,1.586 -4.729,1.397 -4.079,1.165 -3.858,1.086 -3.661,1.03 -3.268,0.919 -2.709,0.761 -1.238,0.362 0,0"
       style="fill:#000000;fill-opacity:1;fill-rule:nonzero;stroke:none"
       transform="matrix(1.3333333,0,0,-1.3333333,45.56,40.5068)"
       clip-path="url(#clipPath6)" />
    <path
       id="path7"
       d="M 0,0 C 0.119,0.104 0.447,0.388 0.429,0.925 0.418,1.278 0.288,1.603 0.191,1.706 c -0.66,0.705 -0.653,0.752 -1.739,0.886 -0.346,0.042 -6.359,-2.426 -9.799,-3.038 -1.163,-0.207 -2.78,-0.566 -3.314,-1.187 -0.566,-0.658 -0.378,-1.631 -0.162,-2.076 0.315,-0.646 1.009,-0.904 1.722,-0.837 1.97,0.185 4.071,1.372 5.98,2.341 2.953,1.5 4.323,1.636 5.298,1.68 C -1.614,-0.516 -0.63,-0.547 0,0"
       style="fill:#000000;fill-opacity:1;fill-rule:nonzero;stroke:none"
       transform="matrix(1.3333333,0,0,-1.3333333,74.901467,38.123333)"
       clip-path="url(#clipPath8)" />
  </g>
</svg>
